<svg width="277" height="210" viewBox="0 0 277 210" fill="none" xmlns="http://www.w3.org/2000/svg">
<path d="M81 35C81 15.67 96.67 0 116 0H161C180.33 0 196 15.67 196 35V35C196 54.33 180.33 70 161 70H116C96.67 70 81 54.33 81 35V35Z" fill="#333333"/>
<path d="M0 79C0 57.4609 17.4609 40 39 40H238C259.539 40 277 57.4609 277 79V171C277 192.539 259.539 210 238 210H39C17.4609 210 0 192.539 0 171V79Z" fill="#201F1F"/>
<path d="M139 73C167.141 73 190 96.0312 190 124.5C190 152.969 167.141 176 139 176C110.859 176 88 152.969 88 124.5C88 96.0312 110.859 73 139 73Z" fill="#191919" stroke="white" stroke-width="6"/>
</svg>
